<svg width="66.219971" height="66.220001" viewBox="0 0 66.22 66.22" fill="none" xmlns="http://www.w3.org/2000/svg" xmlns:xlink="http://www.w3.org/1999/xlink">
	<desc>
			Created with Pixso.
	</desc>
	<defs>
		<clipPath id="clip32_61">
			<rect id="Hicon / Outline / Buy 3" rx="-0.500000" width="37.500000" height="37.500000" transform="translate(14.359985 14.360001)" fill="white" fill-opacity="0"/>
		</clipPath>
	</defs>
	<rect id="Rectangle 22" rx="5.000000" width="66.220001" height="66.220001" fill="#FFFFFF" fill-opacity="0.230000"/>
	<g clip-path="url(#clip32_61)">
		<path id="Vector" d="M15.17 15.9C15.81 15.74 16.47 16.13 16.63 16.77L18.09 22.61L43.52 22.61C45.02 22.61 46.25 22.61 47.22 22.73C48.22 22.86 49.15 23.12 49.88 23.82C50.19 24.11 50.46 24.45 50.68 24.83C51.18 25.71 51.23 26.66 51.11 27.67C51 28.64 50.71 29.84 50.37 31.29L50.33 31.43C49.75 33.84 49.3 35.74 48.78 37.23C48.25 38.76 47.61 39.97 46.6 40.95C46.13 41.42 45.6 41.84 45.04 42.19C43.85 42.94 42.52 43.27 40.91 43.44C39.34 43.6 37.39 43.6 34.91 43.6L33.96 43.6C31.09 43.6 28.84 43.6 27.04 43.39C25.19 43.17 23.69 42.72 22.38 41.74C22.27 41.66 22.16 41.57 22.05 41.48C20.79 40.44 20.01 39.08 19.37 37.34C18.74 35.63 18.22 33.44 17.55 30.66L15.98 24.1L14.29 17.36C14.13 16.71 14.52 16.06 15.17 15.9ZM18.67 25.02L19.87 30.02C20.56 32.9 21.06 34.95 21.63 36.51C22.19 38.04 22.77 38.96 23.58 39.63C23.66 39.69 23.74 39.76 23.83 39.82C24.66 40.45 25.7 40.81 27.31 41C28.96 41.19 31.08 41.19 34.03 41.19L34.84 41.19C37.4 41.19 39.23 41.19 40.67 41.04C42.08 40.9 43 40.63 43.76 40.15C44.18 39.89 44.57 39.58 44.92 39.24C45.56 38.61 46.04 37.78 46.51 36.44C46.98 35.07 47.41 33.3 48.01 30.81C48.38 29.26 48.63 28.2 48.72 27.4C48.81 26.61 48.72 26.26 48.59 26.03C48.49 25.86 48.37 25.7 48.23 25.57C48.03 25.39 47.71 25.22 46.93 25.12C46.12 25.02 45.04 25.02 43.44 25.02L18.67 25.02ZM28.69 36.31C28.69 35.65 29.23 35.11 29.9 35.11L39.52 35.11C40.19 35.11 40.72 35.65 40.72 36.31C40.72 36.98 40.19 37.52 39.52 37.52L29.9 37.52C29.23 37.52 28.69 36.98 28.69 36.31ZM30.66 47.46C30.66 48.39 29.9 49.15 28.97 49.15C28.04 49.15 27.28 48.39 27.28 47.46C27.28 46.53 28.04 45.77 28.97 45.77C29.9 45.77 30.66 46.53 30.66 47.46ZM39.1 49.15C40.03 49.15 40.79 48.39 40.79 47.46C40.79 46.53 40.03 45.77 39.1 45.77C38.17 45.77 37.41 46.53 37.41 47.46C37.41 48.39 38.17 49.15 39.1 49.15Z" fill="#FFFFFF" fill-opacity="1.000000" fill-rule="evenodd"/>
	</g>
</svg>
