<svg width="25.520836" height="32.820312" viewBox="0 0 25.5208 32.8203" fill="none" xmlns="http://www.w3.org/2000/svg" xmlns:xlink="http://www.w3.org/1999/xlink">
	<desc>
			Created with Pixso.
	</desc>
	<defs/>
	<path id="Vector" d="M0 13.64C0 6.18 5.63 0 12.76 0C19.88 0 25.52 6.18 25.52 13.64C25.52 16.04 24.33 18.85 22.83 21.5C21.31 24.18 19.37 26.87 17.67 29.04L17.61 29.11C16.78 30.17 16.08 31.07 15.39 31.69C14.64 32.37 13.82 32.82 12.76 32.82C11.69 32.82 10.87 32.37 10.12 31.69C9.43 31.07 8.73 30.17 7.9 29.11L7.84 29.04C6.14 26.87 4.2 24.18 2.68 21.5C1.18 18.85 0 16.04 0 13.64ZM12.76 2.18C6.99 2.18 2.18 7.24 2.18 13.64C2.18 15.43 3.12 17.83 4.58 20.42C6.03 22.97 7.89 25.56 9.56 27.69C10.46 28.84 11.06 29.59 11.59 30.07C12.08 30.51 12.4 30.63 12.76 30.63C13.11 30.63 13.44 30.51 13.92 30.07C14.45 29.59 15.05 28.84 15.95 27.69C17.62 25.56 19.48 22.97 20.93 20.42C22.4 17.83 23.33 15.43 23.33 13.64C23.33 7.24 18.52 2.18 12.76 2.18ZM7.29 14.21C7.29 11.19 9.74 8.75 12.76 8.75C15.78 8.75 18.22 11.19 18.22 14.21C18.22 17.23 15.78 19.68 12.76 19.68C9.74 19.68 7.29 17.23 7.29 14.21ZM12.76 10.93C10.94 10.93 9.47 12.4 9.47 14.21C9.47 16.03 10.94 17.5 12.76 17.5C14.57 17.5 16.04 16.03 16.04 14.21C16.04 12.4 14.57 10.93 12.76 10.93Z" fill="#E6783F" fill-opacity="1.000000" fill-rule="evenodd"/>
</svg>
