<svg width="37.499992" height="35.625000" viewBox="0 0 37.5 35.625" fill="none" xmlns="http://www.w3.org/2000/svg" xmlns:xlink="http://www.w3.org/1999/xlink">
	<desc>
			Created with Pixso.
	</desc>
	<defs/>
	<g style="mix-blend-mode:normal">
		<path id="Fill 1" d="M20.58 1.15L24.75 9.53C25.06 10.14 25.64 10.56 26.32 10.66L35.7 12.02C36.25 12.1 36.74 12.39 37.08 12.83C37.41 13.27 37.55 13.82 37.47 14.36C37.41 14.81 37.2 15.23 36.87 15.55L30.08 22.13C29.58 22.59 29.35 23.27 29.47 23.94L31.15 33.2C31.33 34.32 30.58 35.37 29.47 35.58C29.02 35.66 28.55 35.58 28.14 35.37L19.77 31.01C19.15 30.7 18.42 30.7 17.8 31.01L9.43 35.37C8.4 35.91 7.13 35.54 6.56 34.53C6.35 34.13 6.27 33.67 6.34 33.22L8.01 23.96C8.13 23.29 7.91 22.61 7.41 22.15L0.62 15.57C-0.19 14.79 -0.22 13.5 0.56 12.69C0.58 12.68 0.6 12.66 0.62 12.64C0.94 12.31 1.36 12.1 1.82 12.05L11.2 10.68C11.87 10.58 12.46 10.17 12.77 9.55L16.79 1.15C17.15 0.43 17.9 -0.02 18.7 0L18.95 0C19.65 0.08 20.26 0.51 20.58 1.15Z" fill="#EF6602" fill-opacity="1.000000" fill-rule="nonzero"/>
	</g>
</svg>
