<svg width="26.875000" height="28.125000" viewBox="0 0 26.875 28.125" fill="none" xmlns="http://www.w3.org/2000/svg" xmlns:xlink="http://www.w3.org/1999/xlink">
	<desc>
			Created with Pixso.
	</desc>
	<defs/>
	<path id="Vector" d="M6.04 0.35C6.36 0.75 6.3 1.34 5.89 1.66L2.77 4.16C2.36 4.49 1.77 4.42 1.45 4.02C1.13 3.61 1.19 3.02 1.6 2.7L4.72 0.2C5.13 -0.12 5.72 -0.06 6.04 0.35ZM20.83 0.35C21.15 -0.06 21.74 -0.12 22.14 0.2L25.27 2.7C25.67 3.02 25.74 3.61 25.41 4.02C25.09 4.42 24.5 4.49 24.1 4.16L20.97 1.66C20.57 1.34 20.5 0.75 20.83 0.35ZM0 14.68C0 7.26 6.01 1.25 13.43 1.25C20.85 1.25 26.87 7.26 26.87 14.68C26.87 22.1 20.85 28.12 13.43 28.12C6.01 28.12 0 22.1 0 14.68ZM13.43 3.12C7.05 3.12 1.87 8.3 1.87 14.68C1.87 21.07 7.05 26.25 13.43 26.25C19.82 26.25 25 21.07 25 14.68C25 8.3 19.82 3.12 13.43 3.12ZM14.37 9.68C14.37 9.16 13.95 8.75 13.43 8.75C12.91 8.75 12.5 9.16 12.5 9.68L12.5 14.94C12.5 15.34 12.34 15.72 12.07 16.01L10.25 17.94C9.9 18.32 9.91 18.91 10.29 19.27C10.67 19.62 11.26 19.6 11.61 19.23L13.43 17.3C14.04 16.66 14.37 15.82 14.37 14.94L14.37 9.68Z" fill="#E6783F" fill-opacity="1.000000" fill-rule="evenodd"/>
</svg>
